<?xml version="1.0" encoding="UTF-8" standalone="no"?><!DOCTYPE svg PUBLIC "-//W3C//DTD SVG 1.1//EN" "http://www.w3.org/Graphics/SVG/1.1/DTD/svg11.dtd"><svg width="100%" height="100%" viewBox="0 0 500 500" version="1.1" xmlns="http://www.w3.org/2000/svg" xmlns:xlink="http://www.w3.org/1999/xlink" xml:space="preserve" xmlns:serif="http://www.serif.com/" style="fill-rule:evenodd;clip-rule:evenodd;stroke-linejoin:round;stroke-miterlimit:2;"><g id="maleta"><g id="centro_maleta" transform="matrix(0.982275,-0.308404,1.400689,4.461228,-525.003818,-1259.374376)"><path d="M134.345,374.272c5.197,0.939 -3.972,14.243 -3.972,14.243c0,0 -15.944,0.639 -21.382,0.639l-36.631,0.254c-4.197,-0.018 -13.492,0.069 -13.492,0.069c0,0 -9.434,-0.799 -10.583,-2.281c-1.15,-1.482 3.787,-6.536 3.686,-6.611c0,0 4.977,-6.721 6.567,-6.919c5.564,-0.693 21.383,-0.342 29.891,-0.352c6.855,-0.008 20.563,0.268 20.563,0.268c4.365,-0.098 22.569,0.187 25.354,0.69Z" style="fill:#522553;"/></g><g id="borde_maleta" transform="matrix(0.654052,0,0,1.732619,12.869967,-292.191664)"><path d="M81.537,395.546c5.108,3.652 9.074,15.124 12.657,22.534c4.81,9.949 5.477,16.065 5.477,16.065c-0.307,0.298 -8.224,-0.432 -8.224,-0.432l-6.212,-1.199c0,0 -5.19,-1.507 -6.67,-2.555c-0.544,0.205 -16.383,-28.145 -15.021,-33.79c1.404,-5.818 13.111,-4.114 17.993,-0.624Z" style="fill:#5f417c;"/></g><g id="top_maleta" transform="matrix(0.971248,-0.238071,0.238071,0.971248,-94.911882,33.7236)"><path d="M147.658,375.614c1.935,0.474 2.684,3.576 3.101,4.857c0.354,1.087 0.422,6.09 -0.941,6.274c-12.883,1.746 -77.302,3.588 -77.302,3.588c0.156,-0.811 -0.727,-4.94 -1.502,-6.441c-1.264,-2.448 -5.277,-3.894 -5.088,-4.104c1.133,-1.262 31.484,-2.548 31.249,-2.095l31.38,-1.354c0.743,0 15.39,-1.636 19.104,-0.725Z" style="fill:#5f417c;"/></g><g id="manija" transform="matrix(1.099505,0,0,1.35755,-11.395518,-130.314489)"><path d="M97.193,358.108c9.564,0 17.328,6.88 17.328,15.353c0,8.474 -7.765,15.353 -17.328,15.353c-9.564,0 -17.328,-6.88 -17.328,-15.353c0,-8.474 7.765,-15.353 17.328,-15.353Zm0,5.509c6.132,0 11.11,4.411 11.11,9.844c0,5.433 -4.978,9.844 -11.11,9.844c-6.132,0 -11.11,-4.411 -11.11,-9.844c0,-5.433 4.978,-9.844 11.11,-9.844Z" style="fill:#522553;"/></g></g><g id="extremidad_izquierda"><g id="pezuña_izquierda_1" transform="matrix(0.21431,-0.33713,0.516211,0.328151,-120.987787,263.605873)"><path d="M86.448,339.867c7.272,1.03 -7.372,17.102 -7.372,17.102c0,0 -5.706,9.258 -13.051,9.258c-7.345,0 -16.536,-1.358 -18.86,-6.29c-3.455,-7.332 29.355,-21.475 39.282,-20.07Z" style="fill:#942530;"/></g><g id="pezuña_izquierda_2" transform="matrix(-0.462949,0.131495,0.164352,0.578628,61.342515,155.353042)"><path d="M80.841,340.423c7.272,1.03 4.375,13.597 1.874,17.695c-2.501,4.098 -9.535,6.893 -16.88,6.893c-7.345,0 -12.665,1.28 -14.989,-3.652c-3.455,-7.332 20.069,-22.341 29.995,-20.936Z" style="fill:#942530;"/></g><g id="brazo_izquierdo" transform="matrix(-0.811647,-0.162918,-0.214636,1.069303,518.398805,39.375568)"><path d="M417.526,235.569c17.721,3.716 35.079,34.305 43.556,71.006c9.183,39.757 -13.517,70.831 -44.847,69.983c-32.048,-0.868 -52.838,-27.731 -46.713,-69.352c5.168,-35.119 25.081,-76.444 48.004,-71.637Z" style="fill:#e0848c;"/></g></g><g id="oreja_baja_izquierda" transform="matrix(0.872695,-0.400773,0.331086,0.72095,-19.972068,95.308001)"><path d="M215.728,79.314c2.072,8.494 5.865,30.708 5.865,30.708c0,5.539 -13.61,5.628 -13.61,5.628c0,0 -9.457,-0.972 -12.983,-3.363c-3.526,-2.391 -7.042,-6.562 -8.17,-10.983c-1.953,-7.652 -1.555,-49.329 -1.555,-49.329c-1.606,-1.938 6.75,1.284 6.75,1.284l17.135,5.797c2.11,1.942 4.885,13.362 6.567,20.258Z" style="fill:#e0848c;"/></g><g id="oreja_baja_derecha" transform="matrix(-0.808117,-0.518809,-0.428598,0.6676,504.508374,129.750968)"><path d="M215.728,79.314c2.072,8.494 5.865,30.708 5.865,30.708c0,5.539 -13.61,5.628 -13.61,5.628c0,0 -9.457,-0.972 -12.983,-3.363c-3.526,-2.391 -7.042,-6.562 -8.17,-10.983c-1.953,-7.652 -1.555,-49.329 -1.555,-49.329c-1.606,-1.938 6.75,1.284 6.75,1.284l17.135,5.797c2.11,1.942 4.885,13.362 6.567,20.258Z" style="fill:#e0848c;"/></g><g id="body"><g id="pierna_derecha" transform="matrix(0.979057,0,0,1.146341,7.851154,-58.129861)"><path d="M375.403,375.845c6.924,11.065 7.496,43.557 2.022,55.58c-3.975,8.73 -9.476,22.114 -21.275,26.598c-13,4.94 -56.726,3.043 -56.726,3.043c-8.765,0.379 -24.719,-9.646 -32.946,-17.122c-7.951,-7.225 -16.417,-27.733 -16.417,-27.733c0,-9.91 19.229,-35.383 33.337,-42.827c14.108,-7.444 36.256,-10.115 52.481,-8.346c14.765,1.609 37.551,8.252 37.551,8.252c0,0 1.382,1.612 1.973,2.555Z" style="fill:#f2acb1;"/></g><g id="pierna_izquierda" transform="matrix(-0.979057,0,0,1.146341,500.489581,-58.129861)"><path d="M386.61,377.318c7.318,11.319 -2.664,42.341 -6.059,55.108c-3.09,11.619 -15.063,21.061 -26.567,25.007c-13.292,4.56 -35.456,3.731 -53.185,2.35c0,0 -20.012,-0.199 -28.239,-7.675c-7.951,-7.225 -21.659,-31.245 -19.446,-44.048c2.213,-12.803 16.675,-27.582 30.283,-34.677c13.921,-7.258 53.245,-8.872 53.245,-8.872c0,0 42.649,1.488 49.968,12.807Z" style="fill:#f2acb1;"/></g><g id="torso" transform="matrix(1.341192,0,0,1.018817,-124.506549,-1.725958)"><path d="M279.234,76.247c48.344,5.419 84.111,86.598 98.774,144.722c30.692,121.661 17.566,189.45 -98.774,195.16c-158.955,7.801 -109.395,-179.593 -104.502,-191.721c14.298,-35.439 28.628,-156.667 104.502,-148.161Z" style="fill:#f2acb1;"/></g></g><g id="corbata"><g id="corbata_alta" transform="matrix(1.094523,0,0,0.955112,-20.353952,13.287898)"><path d="M229.917,298.608c1.662,4.861 2.744,12.219 2.744,12.219c0,0 -0.868,9.817 -3.271,14.801c-5.778,-1.1 -12.564,-1.037 -20.62,-0c-1.538,-4.934 -3.831,-9.867 -3.846,-14.801c-0.015,-4.934 1.904,-11.774 1.904,-11.774c7.696,-3.786 15.393,-4.495 23.089,-0.445Z" style="fill:#522553;"/></g><g id="corbata_baja" transform="matrix(1.11284,0,-0,-0.990654,-21.997732,778.493561)"><path d="M216.509,373.637l22.995,36.456c0,0 -5.659,16.558 -7.641,24.381c-1.879,7.416 -5.117,22.231 -4.253,22.555c0,0 -7.069,1.448 -10.941,1.451c-3.357,-0.142 -6.582,-0.655 -9.613,-1.713c0,0 -3.617,-14.776 -5.462,-22.155c-2.018,-8.07 -5.302,-17.682 -6.647,-27.47l21.562,-33.505Z" style="fill:#522553;"/></g></g><g id="camisa"><g id="lengua_izquierda" transform="matrix(0.481718,0.891417,-0.676829,0.365755,315.334751,32.078697)"><path d="M183.058,271.862c0.701,0.299 2.709,1.928 2.709,1.928l-0.618,2.141l4.162,16.526c0,0 7.111,22.035 9.787,31.418c-42.994,19.56 -125.152,35.041 -125.152,35.041l-8.791,-8.508l-2.561,-6.576c0.136,1.618 59.292,-23.923 59.292,-23.923c0.846,0.796 47.608,-29.89 61.172,-48.048Z" style="fill:#fff;"/></g><g id="lengua_derecha" transform="matrix(-0.612304,0.807316,0.612973,0.464906,169.072913,15.302485)"><path d="M189.817,271.256l2.486,2.483l-1.576,2.998l1.26,15.885c0,0 4.027,25.607 6.703,34.99c-21.32,9.552 -76.662,33.301 -76.662,33.301l-46.703,21.522c-8.501,2.719 -44.375,27.237 -38.87,23.955c2.03,-1.21 -16.709,-36.669 -14.875,-40.537c0.066,0.791 29.021,-4.876 42.367,-9.677c12.813,-4.609 30.917,-11.714 44.82,-21.094c20.978,-14.153 81.051,-63.826 81.051,-63.826Z" style="fill:#fff;"/></g></g><g id="extremidad_derecha"><g id="pezuña_derecha2" transform="matrix(0.842153,-0.161145,0.213492,1.11572,3.599441,17.936329)"><path d="M430.491,360.446c7.912,-0.082 12.06,5.376 9.203,14.309c0,0 -3.307,9.291 -8.284,10.974c-3.035,1.027 -9.608,-6.073 -11.407,-11.065c-4.07,-11.296 1.456,-14.126 10.488,-14.219Z" style="fill:#942530;"/></g><g id="brazo_Derecho" transform="matrix(0.772868,-0.296629,0.390793,1.018213,-34.357184,112.847446)"><path d="M417.526,235.569c17.721,3.716 35.079,34.305 43.556,71.006c9.183,39.757 -13.517,70.831 -44.847,69.983c-32.048,-0.868 -52.838,-27.731 -46.713,-69.352c5.168,-35.119 25.081,-76.444 48.004,-71.637Z" style="fill:#f2acb1;"/><path d="M417.526,235.569c17.721,3.716 35.079,34.305 43.556,71.006c9.183,39.757 -13.517,70.831 -44.847,69.983c-32.048,-0.868 -52.838,-27.731 -46.713,-69.352c5.168,-35.119 25.081,-76.444 48.004,-71.637Zm-0.774,2.127c-3.742,-0.785 -7.363,0.014 -10.832,1.9c-3.979,2.163 -7.719,5.686 -11.209,10.129c-11.012,14.017 -19.247,36.977 -22.3,57.727c-2.983,20.273 0.499,36.961 8.718,48.677c7.9,11.261 20.207,17.82 35.21,18.226c11.599,0.314 21.87,-4.172 29.536,-11.936c12.049,-12.204 17.688,-32.326 12.345,-55.461c-5.022,-21.74 -13.169,-41.316 -22.686,-54.284c-5.942,-8.096 -12.227,-13.602 -18.78,-14.977Z" style="fill:url(#_Linear1);"/></g><g id="pezuña_derecha_1" transform="matrix(1.098591,0,0,1.119403,-42.547638,-46.153957)"><path d="M430.491,360.446c7.912,-0.082 12.06,5.376 9.203,14.309c0,0 -3.307,9.291 -8.284,10.974c-3.035,1.027 -9.608,-6.073 -11.407,-11.065c-4.07,-11.296 1.456,-14.126 10.488,-14.219Z" style="fill:#942530;"/></g></g><g id="sombra_facial" transform="matrix(0.293936,0,0,0.600198,105.703222,-38.225889)"><g id="sombra_facial1" serif:id="sombra_facial"><ellipse id="sombra_facial2" serif:id="sombra_facial" cx="427.278" cy="380.644" rx="167.035" ry="77.236" style="fill:#e0848c;"/></g></g><g id="arruga_facial" transform="matrix(0.180008,-0.000405,0.000405,0.180008,135.550534,95.120832)"><path id="arruga_facial1" serif:id="arruga_facial" d="M410.591,468.852c75.856,-31.834 164.08,-2.012 163.441,5.98" style="fill:#d3596e;"/></g><g id="ojo_derecho" transform="matrix(0.175861,0,0,0.175861,136.431553,97.08221)"><g id="iris_derecho" transform="matrix(1.063126,0.017792,-0.016552,0.989029,-45.444364,-10.553174)"><path d="M834.602,396.14c0,0 53.271,-19.57 50.25,93.975c-1.676,62.997 -21.15,65.754 -37.951,79.416c-16.887,13.731 -30.553,-18.744 -36.881,-80.426c-7.392,-72.051 24.581,-92.965 24.581,-92.965Z" style="fill:#522553;"/></g><path id="arruga_derecha" d="M833.079,582.378c14.089,-13.149 30.045,-24.332 39.669,-30.1c0.605,-0.363 1.567,-0.94 2.507,-1.506c1.433,-0.861 2.816,-1.693 2.816,-1.693c0,0 30.604,-18.084 31.664,-14.911c-12.83,-1.377 -14.987,-1.346 -31.527,0.177c-2.145,-2.492 -47.158,16.693 -45.13,48.033Z" style="fill:#522553;"/><g id="brillo_derecho" transform="matrix(-0.705595,0.080794,0.067279,0.587567,922.188926,208.295681)"><ellipse cx="189.425" cy="446.343" rx="36.666" ry="19.88" style="fill:#f2acb1;"/></g></g><g id="ojo_izquierdo" transform="matrix(-0.175861,0,0,0.175861,329.669988,95.037346)"><g id="iris_izquierdo" transform="matrix(1.063126,0.017792,-0.016552,0.989029,-45.444364,-10.553174)"><path d="M859.961,429.237c9.721,6.55 14.264,15.1 13.828,98.434c-0.156,29.834 -8.545,28.213 -8.545,28.213l-18.343,13.648c-16.123,14.621 -38.207,-21.634 -31.437,-81.158c9.64,-84.755 34.776,-65.686 44.496,-59.137Z" style="fill:#522553;"/></g><g id="arruga_izquierdo" transform="matrix(0.934397,-0.05733,0.062764,1.022962,23.7712,34.387822)"><path d="M833.079,582.378c13.179,-10.007 28.33,-21.505 39.669,-30.1c5.681,-4.306 0,0 0,0l5.051,-4.133c0,0 22.399,-19.052 23.459,-15.879c-12.83,-1.377 -21.799,4.507 -21.799,4.507c0,0 -48.109,18.047 -46.38,45.604Z" style="fill:#522553;"/></g><g id="brillo_izquierdo" transform="matrix(-0.705595,0.080794,0.067279,0.587567,979.445683,219.923393)"><ellipse cx="189.425" cy="446.343" rx="36.666" ry="19.88" style="fill:#f2acb1;"/></g></g><g id="cejasyhocico" transform="matrix(0.175861,0,0,0.175861,136.431553,97.08221)"><g id="hocico" transform="matrix(1,0,0,1,0,-11.678831)"><path d="M469.292,500c198.439,0.572 343.358,84.801 332.263,211.376c-9.262,105.66 -115.073,124.69 -327.591,127.288c-202.223,2.472 -283.843,-40.339 -289.051,-145.942c-1.138,-23.069 11.92,-65.234 30.311,-86.464c56.372,-65.071 154.522,-106.545 254.068,-106.258Z" style="fill:#d3596e;"/></g><g id="ceja_derecha" transform="matrix(-0.974475,0.333496,0.227479,0.664693,960.196817,67.042989)"><path d="M397.467,304.854c1.015,4.887 3.333,15.789 3.333,15.789c0,0 22.59,96.604 -21.052,122.619c-48.185,28.723 -271.388,33.93 -271.388,33.93c-21.339,-16.228 -22.586,-42.202 -27.389,-62.383l-10.108,-122.454c0,-33.47 28.643,-48.144 51.473,-48.144l241.983,-5.879c24.54,7.327 33.149,66.522 33.149,66.522Z" style="fill:#d3596e;"/></g><g id="ceja_izquierda" transform="matrix(0.926927,0.44903,-0.306285,0.63226,113.310272,37.443977)"><path d="M397.467,304.854c1.015,4.887 3.333,15.789 3.333,15.789c0,0 22.59,96.604 -21.052,122.619c-48.185,28.723 -271.388,33.93 -271.388,33.93c-21.339,-16.228 -22.586,-42.202 -27.389,-62.383l-10.108,-122.454c0,-33.47 28.643,-48.144 51.473,-48.144l241.983,-5.879c24.54,7.327 33.149,66.522 33.149,66.522Z" style="fill:#d3596e;"/></g><g id="fosas" transform="matrix(1,0,0,1,2.551228,-8.929419)"><g id="fosa_izquierda" transform="matrix(0.832853,0.130773,-0.175062,1.114909,210.460711,-113.523095)"><ellipse cx="347.691" cy="671.891" rx="31.766" ry="69.138" style="fill:#942530;"/></g><g id="fosa_derecha" transform="matrix(-0.832853,0.130773,0.175062,1.114909,718.261198,-119.901262)"><ellipse cx="347.691" cy="671.891" rx="31.766" ry="69.138" style="fill:#942530;"/></g></g></g><g id="oreja_izquierda"><g id="oreja_alta_izquierda" transform="matrix(1.659044,0.723727,-0.671241,1.538728,-64.578004,-149.013189)"><path d="M176.683,65.892c4.448,10.083 1.841,27.861 1.447,28.046c0,4.782 -5.672,20.489 -10.603,25.126c-4.655,4.378 -14.668,3.917 -18.981,2.694c-3.904,-1.107 -8.299,-5.443 -6.897,-10.03c2.077,-6.797 7.847,-35.003 7.847,-35.003c0,0 1.16,-9.004 3.885,-12.35c3.315,-4.07 16.002,-12.07 16.002,-12.07c2.401,0.957 7.299,13.586 7.299,13.586Z" style="fill:#f2acb1;"/><path d="M176.683,65.892c4.448,10.083 1.841,27.861 1.447,28.046c-0,4.782 -5.672,20.489 -10.603,25.126c-4.655,4.378 -14.668,3.917 -18.981,2.694c-3.904,-1.107 -8.299,-5.443 -6.897,-10.03c2.077,-6.797 7.847,-35.003 7.847,-35.003c0,0 1.16,-9.004 3.885,-12.35c3.315,-4.07 16.002,-12.07 16.002,-12.07c2.401,0.957 7.299,13.586 7.299,13.586Zm0.281,27.357c0.014,-0.054 0.032,-0.13 0.046,-0.194c0.646,-2.999 2.338,-17.785 -1.528,-26.548l-0.026,-0.063c-0,0 -2.354,-6.075 -4.576,-10.041c-0.529,-0.945 -1.045,-1.765 -1.519,-2.323l-0.053,-0.063c-2.73,1.749 -12.166,7.912 -14.929,11.305c-0.987,1.211 -1.714,3.258 -2.271,5.259c-0.893,3.207 -1.297,6.342 -1.297,6.342c-0.005,0.037 -0.011,0.075 -0.019,0.111c0,0 -5.797,28.318 -7.883,35.142c-0.55,1.801 0.102,3.534 1.211,4.945c1.236,1.573 3.052,2.766 4.762,3.25c2.468,0.699 6.892,1.129 10.996,0.466c2.602,-0.421 5.084,-1.266 6.774,-2.854c2.359,-2.218 4.856,-7.11 6.803,-11.994c1.945,-4.881 3.345,-9.765 3.345,-12.052c0,-0.246 0.058,-0.482 0.164,-0.689Z" style="fill:url(#_Linear2);"/></g></g><g id="oreja_derecha" transform="matrix(-0.990185,-0.139762,-0.139762,0.990185,498.052791,32.587065)"><g id="oreja_alta_derecha" transform="matrix(1.659044,0.723727,-0.671241,1.538728,-64.578004,-149.013189)"><path d="M176.683,65.892c4.448,10.083 1.841,27.861 1.447,28.046c0,4.782 -5.672,20.489 -10.603,25.126c-4.655,4.378 -14.668,3.917 -18.981,2.694c-3.904,-1.107 -8.299,-5.443 -6.897,-10.03c2.077,-6.797 7.847,-35.003 7.847,-35.003c0,0 1.16,-9.004 3.885,-12.35c3.315,-4.07 16.002,-12.07 16.002,-12.07c2.401,0.957 7.299,13.586 7.299,13.586Z" style="fill:#f2acb1;"/><path d="M176.683,65.892c0,0 -4.899,-12.629 -7.299,-13.586c0,0 -12.688,8 -16.002,12.07c-2.725,3.346 -3.885,12.35 -3.885,12.35c0,0 -5.77,28.205 -7.847,35.003c-1.401,4.586 2.993,8.923 6.897,10.03c4.313,1.223 14.326,1.684 18.981,-2.694c4.931,-4.637 10.603,-20.344 10.603,-25.126c0.394,-0.185 3.001,-17.964 -1.447,-28.046Zm0.281,27.357c-0.105,0.207 -0.164,0.443 -0.164,0.689c-0,2.287 -1.399,7.171 -3.345,12.052c-1.947,4.884 -4.444,9.776 -6.803,11.994c-1.689,1.589 -4.171,2.434 -6.774,2.854c-4.103,0.663 -8.528,0.233 -10.996,-0.466c-1.709,-0.485 -3.526,-1.678 -4.762,-3.25c-1.108,-1.41 -1.761,-3.144 -1.211,-4.945c2.085,-6.825 7.883,-35.142 7.883,-35.142c0.008,-0.037 0.014,-0.074 0.019,-0.111c0,0 0.404,-3.135 1.297,-6.342c0.557,-2.001 1.284,-4.048 2.271,-5.259c2.763,-3.393 12.199,-9.556 14.929,-11.305l0.053,0.063c0.474,0.558 0.989,1.378 1.519,2.323c2.222,3.966 4.576,10.041 4.576,10.041l0.026,0.063c3.866,8.763 2.175,23.549 1.528,26.548c-0.014,0.064 -0.032,0.139 -0.046,0.194Z" style="fill:url(#_Linear3);"/></g></g><g id="esponja"><g id="dark_esponja" transform="matrix(0.96997,0,0,1.114173,6.044143,-11.951317)"><path d="M249.685,39.417c27.838,2.171 45.202,7.899 45.202,7.899c0,0 -1.638,9.467 -7.082,26.613c-1.623,5.113 -7.555,19.968 -7.555,19.968c0,0 -15.839,9.877 -36.502,10.779c-15.608,0.681 -33.083,-11.542 -33.083,-11.542c0,0 -5.503,-14.203 -7.292,-21.317c-3.221,-12.81 -4.024,-25.13 -3.399,-25.492c0,0 27.806,-8.617 49.711,-6.909Z" style="fill:#942530;"/></g><g id="white_esponja" transform="matrix(0.96997,0,0,1.114173,6.044143,-11.951317)"><path d="M247.333,52.369c21.673,0.382 47.554,-5.053 47.554,-5.053c0,0 -1.638,9.467 -7.082,26.613c-1.623,5.113 -7.555,19.968 -7.555,19.968c0,0 -15.839,9.877 -36.502,10.779c-15.608,0.681 -33.083,-11.542 -33.083,-11.542c0,0 -5.503,-14.203 -7.292,-21.317c-3.221,-12.81 -4.024,-25.13 -3.399,-25.492c0,0 25.371,5.656 47.358,6.043Z" style="fill:#d56563;"/></g><g id="hoyo_mega" transform="matrix(1.193263,0,0,1.076087,-50.255734,-6.453274)"><ellipse cx="256.775" cy="75.426" rx="8.543" ry="9.389" style="fill:#942530;"/></g><g id="hoyo_mini" transform="matrix(1.0848,0,0,1.173913,-19.282731,-11.520255)"><ellipse cx="222.576" cy="61.547" rx="4.814" ry="4.694" style="fill:#942530;"/></g></g><defs><linearGradient id="_Linear1" x1="0" y1="0" x2="1" y2="0" gradientUnits="userSpaceOnUse" gradientTransform="matrix(94.688658,0,0,141.389855,368.452445,305.880714)"><stop offset="0" style="stop-color:#e0848c;stop-opacity:0"/><stop offset="0" style="stop-color:#e0848c;stop-opacity:1"/><stop offset="1" style="stop-color:#f2acb1;stop-opacity:0"/></linearGradient><linearGradient id="_Linear2" x1="0" y1="0" x2="1" y2="0" gradientUnits="userSpaceOnUse" gradientTransform="matrix(37.864392,0,0,70.293701,141.381918,87.452553)"><stop offset="0" style="stop-color:#e0848c;stop-opacity:0"/><stop offset="0.63" style="stop-color:#e0848c;stop-opacity:0.13"/><stop offset="0.8" style="stop-color:#e0848c;stop-opacity:0.52"/><stop offset="0.94" style="stop-color:#e0848c;stop-opacity:1"/><stop offset="0.97" style="stop-color:#e0848c;stop-opacity:1"/><stop offset="1" style="stop-color:#942530;stop-opacity:0"/></linearGradient><linearGradient id="_Linear3" x1="0" y1="0" x2="1" y2="0" gradientUnits="userSpaceOnUse" gradientTransform="matrix(37.864392,0,0,70.293701,141.381918,87.452553)"><stop offset="0" style="stop-color:#e0848c;stop-opacity:0"/><stop offset="0.63" style="stop-color:#e0848c;stop-opacity:0.13"/><stop offset="0.8" style="stop-color:#e0848c;stop-opacity:0.52"/><stop offset="0.94" style="stop-color:#e0848c;stop-opacity:1"/><stop offset="0.97" style="stop-color:#e0848c;stop-opacity:1"/><stop offset="1" style="stop-color:#942530;stop-opacity:0"/></linearGradient></defs></svg>